HIERARCHY
ROOT Hips
{
    OFFSET   0.000000   0.000000   0.000000
    CHANNELS 6 Xposition Yposition Zposition Xrotation Yrotation Zrotation
    JOINT LeftUpLeg
    {
        OFFSET   0.078795   0.000000   0.000000
        CHANNELS 3 Xrotation Yrotation Zrotation
        JOINT LeftLeg
        {
            OFFSET   0.000000  -0.427566   0.000000
            CHANNELS 3 Xrotation Yrotation Zrotation
            JOINT LeftFoot
            {
                OFFSET   0.000000  -0.394685   0.000000
                CHANNELS 3 Xrotation Yrotation Zrotation
                JOINT LeftToeBase
                {
                    OFFSET   0.000000  -0.039971   0.149173
                    CHANNELS 3 Xrotation Yrotation Zrotation
                }
            }
        }
    }
    JOINT RightUpLeg
    {
        OFFSET  -0.078795   0.000000   0.000000
        CHANNELS 3 Xrotation Yrotation Zrotation
        JOINT RightLeg
        {
            OFFSET   0.000000  -0.427566   0.000000
            CHANNELS 3 Xrotation Yrotation Zrotation
            JOINT RightFoot
            {
                OFFSET   0.000000  -0.394685   0.000000
                CHANNELS 3 Xrotation Yrotation Zrotation
                JOINT RightToeBase
                {
                    OFFSET   0.000000  -0.039971   0.149173
                    CHANNELS 3 Xrotation Yrotation Zrotation
                }
            }
        }
    }
    JOINT Spine
    {
        OFFSET   0.000000   0.001000   0.000000
        CHANNELS 3 Xrotation Yrotation Zrotation
        JOINT Spine1
        {
            OFFSET   0.000000   0.211086   0.000000
            CHANNELS 3 Xrotation Yrotation Zrotation
            JOINT Neck
            {
                OFFSET   0.000000   0.158868   0.000000
                CHANNELS 3 Xrotation Yrotation Zrotation
            }
            JOINT LeftShoulder
            {
                OFFSET   0.000000   0.158868   0.000000
                CHANNELS 3 Xrotation Yrotation Zrotation
                JOINT LeftArm
                {
                    OFFSET   0.189194  -0.000001   0.000000
                    CHANNELS 3 Xrotation Yrotation Zrotation
                    JOINT LeftForeArm
                    {
                        OFFSET   0.272680  -0.000001   0.000000
                        CHANNELS 3 Xrotation Yrotation Zrotation
                        JOINT LeftHand
                        {
                            OFFSET   0.258023  -0.000001   0.000000
                            CHANNELS 3 Xrotation Yrotation Zrotation
                        }
                    }
                }
            }
            JOINT RightShoulder
            {
                OFFSET   0.000000   0.158868   0.000000
                CHANNELS 3 Xrotation Yrotation Zrotation
                JOINT RightArm
                {
                    OFFSET  -0.189194  -0.000001   0.000000
                    CHANNELS 3 Xrotation Yrotation Zrotation
                    JOINT RightForeArm
                    {
                        OFFSET  -0.272680  -0.000001   0.000000
                        CHANNELS 3 Xrotation Yrotation Zrotation
                        JOINT RightHand
                        {
                            OFFSET  -0.258023  -0.000001   0.000000
                            CHANNELS 3 Xrotation Yrotation Zrotation
                        }
                    }
                }
            }
        }
    }
}
MOTION
Frames: 17
Frame Time:   0.016667
 -1.398169   0.874752   3.261732  -2.796467  68.045493  -5.409089 -26.063370  13.725672 -12.973405  21.686197   9.097075   7.079043  -2.328754   3.212819  21.691031   0.000000   0.000000   0.000000  -7.390775 -20.021293  -7.931616  59.519761   1.494934  -6.232955  28.170672   2.741278  10.400136   0.000000   0.000000   0.000000   2.010035   0.426630   1.453378   7.996176   1.838404   5.786740  14.526266  34.184935 -15.852473   0.085656  -0.053107 -16.692630  17.950375 -26.778072 -52.556905  -0.116023  -3.135739  -1.497616  -1.559994   5.039721  -5.291869  -1.129533   1.272332  18.591698  16.333245  18.199758  42.653270  -0.832661  27.178765  -5.847854   2.078218   3.743826  -4.459316
 -1.380388   0.877175   3.264517  -2.560414  70.418767  -5.076316 -24.073494  13.286930 -14.150123  21.156113   8.464694   7.015849  -2.975252   2.685007  21.498642   0.000000   0.000000   0.000000 -10.962407 -17.688523  -8.887204  61.963116   0.826749  -6.161546  24.921779   2.209262   9.916448   0.000000   0.000000   0.000000   1.957232   0.467986   1.400437   7.775738   1.993009   5.577377  15.023314  34.597618 -16.455214   0.110612   0.310055 -16.933837  17.763621 -26.824026 -52.570961  -0.095942  -5.549501  -0.899991  -3.212098   4.293739  -4.914871  -1.135753   1.535435  18.429382  16.990308  18.726169  42.343679  -0.817500  26.870240  -5.766469   2.066352   3.554986  -2.804462
 -1.362548   0.879605   3.267330  -2.181996  72.870807  -4.929082 -22.084150  12.776843 -15.252139  20.582329   7.733810   6.916335  -3.598579   2.097414  21.319211   0.000000   0.000000   0.000000 -14.353521 -15.460363  -9.595653  63.822568   0.066826  -6.165888  21.595196   1.598248   9.384777   0.000000   0.000000   0.000000   1.898468   0.487778   1.360836   7.534597   2.062075   5.423173  15.479009  34.990706 -17.037680   0.137441   0.678957 -17.212828  17.659703 -26.907811 -52.530479  -0.054042  -8.160943  -0.174834  -4.755287   3.494050  -4.522429  -1.139700   1.760729  18.277905  17.664461  19.213552  42.027619  -0.806539  26.654534  -5.708336   2.172557   3.390839  -1.142281
 -1.344198   0.882104   3.270357  -1.601286  75.826801  -5.138731 -19.976527  11.971703 -16.182723  19.891716   6.742671   6.739856  -4.112218   1.350005  21.237532   0.000000   0.000000   0.000000 -17.260023 -13.731236  -9.964763  63.998793  -0.834378  -6.529785  19.785225   0.854329   8.949962   0.000000   0.000000   0.000000   1.841773   0.431253   1.357078   7.310977   1.829756   5.417182  15.697082  35.215505 -17.433433   0.160417   0.957403 -17.470499  17.697856 -27.142958 -52.485905  -0.005076 -11.234013   0.881603  -5.560161   2.647246  -4.011887  -1.134397   1.811416  18.145922  18.148800  19.398344  41.867345  -0.811573  26.755887  -5.696687   2.560420   3.292996   0.243143
 -1.325756   0.884622   3.273423  -0.746059  78.825838  -5.650143 -17.869909  11.087059 -17.052513  19.178858   5.707931   6.536852  -4.615014   0.573970  21.167096   0.000000   0.000000   0.000000 -20.061381 -12.088157 -10.210135  63.863519  -1.762729  -6.964647  18.245497   0.092722   8.519657   0.000000   0.000000   0.000000   1.785154   0.360904   1.359510   7.089920   1.542479   5.435749  15.873103  35.409741 -17.799698   0.183253   1.219154 -17.725246  17.760441 -27.404614 -52.439329   0.099778 -14.381618   2.009173  -6.237099   1.785841  -3.486635  -1.127255   1.829843  18.017187  18.603507  19.531182  41.732245  -0.819742  26.915223  -5.692917   3.001732   3.214642   1.584291
 -1.306439   0.886956   3.276551   0.367603  82.368377  -6.628921 -15.656073   9.878575 -17.513281  18.499250   4.429814   6.218675  -5.053740  -0.358343  21.143088   0.000000   0.000000   0.000000 -22.023687 -10.837166 -10.041085  62.084357  -2.298720  -7.528307  16.577858  -0.525965   7.521027   0.000000   0.000000   0.000000   1.751619   0.244631   1.383783   6.967705   1.076556   5.543122  15.666734  35.187440 -17.708287   0.181668   1.148887 -17.658677  17.723938 -27.883295 -52.656695   0.171849 -17.808635   3.272242  -5.590286   0.984498  -2.803516  -1.112183   1.561645  17.997418  18.750851  19.177963  41.811255  -0.850518  27.413257  -5.666776   3.324845   3.161400   2.039687
 -1.287014   0.889158   3.279670   3.333751  85.887066  -9.458224 -13.491205   8.631371 -17.890967  17.862709   3.156921   5.880247  -5.514071  -1.293625  21.109991   0.000000   0.000000   0.000000 -23.903283  -9.582192  -9.837118  60.129984  -2.720086  -8.078323  14.881039  -1.051918   6.521721   0.000000   0.000000   0.000000   1.717605   0.126580   1.403532   6.845276   0.602832   5.631498  15.434514  34.921007 -17.564026   0.177928   1.052194 -17.563791  17.669635 -28.378365 -52.879359   0.308439 -21.222908   4.535956  -4.828214   0.214773  -2.137493  -1.097783   1.279055  17.998802  18.904647  18.803604  41.889296  -0.882107  27.916708  -5.640928   3.600821   3.121994   2.390384
 -1.266986   0.890587   3.282733  44.471601  89.376342 -50.461008 -11.488054   7.255182 -18.026332  17.485236   1.886490   5.508288  -6.050209  -2.246508  21.064049   0.000000   0.000000   0.000000 -25.340409  -8.259743  -9.630975  57.238632  -2.577184  -8.461630  13.081679  -1.197050   5.595627   0.000000   0.000000   0.000000   1.682163  -0.001554   1.399988   6.720661   0.087025   5.626440  15.057381  34.410255 -17.108384   0.163870   0.810890 -17.309011  17.535567 -28.969493 -53.129712   0.433208 -24.615415   5.685918  -3.413603  -0.402787  -1.604261  -1.087140   0.919660  18.117555  19.069955  18.294994  41.971326  -0.915525  28.448318  -5.621167   3.611633   3.153224   2.136498
 -1.246713   0.891772   3.285646 168.799917  86.722755 -174.659180  -9.550359   5.831285 -18.052982  17.176342   0.636441   5.137737  -6.614570  -3.191650  21.009491   0.000000   0.000000   0.000000 -26.622351  -6.948133  -9.390303  54.003677  -2.404622  -8.801202  11.371411  -1.313220   4.723422   0.000000   0.000000   0.000000   1.644601  -0.134316   1.389199   6.588907  -0.448126   5.591591  14.659725  33.833501 -16.571847   0.149238   0.548328 -17.026966  17.383361 -29.585652 -53.353213   0.603644 -27.967352   6.805914  -1.838075  -0.946439  -1.152837  -1.077450   0.556924  18.266846  19.253871  17.776623  42.053442  -0.947099  28.958660  -5.614712   3.566013   3.212756   1.727148
 -1.225685   0.892363   3.287789 172.800884  83.070235 -178.565373  -7.767682   4.283371 -17.890902  17.013996  -0.517346   4.836310  -7.227737  -4.078964  20.957452   0.000000   0.000000   0.000000 -27.487005  -5.737855  -9.066788  49.799869  -2.684795  -9.148506  10.252067  -1.758713   4.063436   0.000000   0.000000   0.000000   1.597810  -0.282786   1.362961   6.423110  -1.048333   5.494348  14.260627  33.148282 -15.859589   0.137121   0.314185 -16.751810  17.233768 -30.250017 -53.389923   0.763530 -31.150580   7.744343  -0.010235  -1.287543  -1.082542  -1.073548   0.253906  18.467379  19.512497  17.327307  42.134695  -0.964404  29.322780  -5.678930   3.472912   3.361552   1.049507
 -1.204521   0.892851   3.289791 174.014934  79.433735 -179.688997  -6.013367   2.718406 -17.656324  16.874117  -1.652026   4.544748  -7.856005  -4.955158  20.897308   0.000000   0.000000   0.000000 -28.281594  -4.551277  -8.718088  45.417011  -3.025604  -9.523516   9.234705  -2.257278   3.435138   0.000000   0.000000   0.000000   1.549093  -0.434017   1.333642   6.249617  -1.659913   5.383325  13.873615  32.439911 -15.127637   0.126172   0.085110 -16.478443  17.082729 -30.922446 -53.393914   0.972103 -34.296819   8.681171   1.855923  -1.593286  -1.072929  -1.069685  -0.038506  18.677068  19.787471  16.892906  42.215997  -0.978772  29.660555  -5.755867   3.373480   3.526992   0.326679
 -1.182784   0.892971   3.289650 174.655165  75.987804 179.548031  -4.220810   1.108397 -17.063004  16.571313  -2.626449   4.324167  -8.495946  -5.713501  20.829560   0.000000   0.000000   0.000000 -28.472994  -3.605945  -8.273326  39.622913  -4.022620  -9.506585   9.135371  -3.245878   3.889132   0.000000   0.000000   0.000000   1.506787  -0.578865   1.324474   6.101192  -2.244183   5.351768  13.574706  31.716168 -14.373733   0.119366  -0.079027 -16.274096  16.921642 -31.501250 -53.196278   1.151062 -37.137251   9.363663   3.784194  -1.709641  -1.556600  -1.067734  -0.261681  18.863150  20.001969  16.615340  42.336579  -0.972872  29.738215  -5.883140   3.535315   3.674895  -0.267439
 -1.161068   0.892953   3.289219 175.063892  72.632016 179.007569  -2.418846  -0.443363 -16.391694  16.287172  -3.581814   4.091812  -9.152189  -6.465297  20.766103   0.000000   0.000000   0.000000 -28.573652  -2.623375  -7.846901  33.753277  -4.894447  -9.446424   9.011172  -4.149417   4.510565   0.000000   0.000000   0.000000   1.468454  -0.715733   1.314823   5.967379  -2.796047   5.317069  13.301003  31.004239 -13.652639   0.112856  -0.246710 -16.075052  16.752450 -32.037471 -52.997565   1.371313 -39.930288  10.042717   5.686495  -1.825455  -2.055459  -1.064737  -0.483346  19.043758  20.197256  16.356717  42.452963  -0.965788  29.785846  -5.999495   3.720093   3.802142  -0.803974
 -1.139475   0.892153   3.287195 175.550327  69.649377 178.334061  -0.621457  -1.753707 -15.517383  16.122607  -4.443514   3.824441  -9.866105  -7.185837  20.767603   0.000000   0.000000   0.000000 -28.139170  -1.420463  -7.533202  27.503772  -5.132967  -8.646806   8.718449  -4.581930   6.053453   0.000000   0.000000   0.000000   1.452940  -0.809136   1.303814   5.917894  -3.170964   5.276681  13.101529  30.371749 -13.053093   0.106165  -0.433573 -15.902776  16.538670 -32.340995 -52.791351   1.588847 -42.492448  10.539353   7.484609  -1.868548  -2.663372  -1.059929  -0.695530  19.195006  20.272435  16.190536  42.549052  -0.952705  29.667270  -6.056677   4.021282   3.827714  -1.037561
 -1.118027   0.891192   3.284604 175.980675  66.842458 177.677758   1.194525  -2.934574 -14.547465  15.989079  -5.260721   3.558410 -10.564582  -7.880813  20.791500   0.000000   0.000000   0.000000 -27.581308  -0.142291  -7.215773  21.291468  -5.046707  -7.622130   8.542181  -4.729034   7.855088   0.000000   0.000000   0.000000   1.447273  -0.883459   1.298397   5.905141  -3.468046   5.258656  12.933461  29.792843 -12.519378   0.099800  -0.623656 -15.743765  16.308081 -32.557159 -52.601160   1.827280 -44.957177  10.992702   9.208500  -1.899624  -3.259470  -1.054759  -0.894408  19.334505  20.311529  16.066393  42.623071  -0.938329  29.495049  -6.089911   4.321200   3.817129  -1.154283
 -1.097260   0.890118   3.280488 176.564898  64.554290 176.706938   3.047089  -3.743599 -13.396256  15.921871  -5.932953   3.345155 -11.101903  -8.466283  20.909492   0.000000   0.000000   0.000000 -26.858457   1.323599  -6.715563  15.633725  -3.416867  -5.970557   9.107974  -3.718449  10.151943   0.000000   0.000000   0.000000   1.473555  -0.896579   1.325603   6.012615  -3.514663   5.372079  12.833144  29.433890 -12.198442   0.093907  -0.812119 -15.629432  16.032073 -32.525214 -52.505390   2.059382 -47.134483  11.285992  10.650727  -1.864477  -3.688564  -1.051718  -1.028896  19.439152  20.263268  16.075106  42.601066  -0.921499  29.193319  -6.052090   4.497412   3.716152  -0.941399
 -1.076617   0.889024   3.276096 177.071442  62.371676 175.783538   4.917824  -4.453084 -12.193416  15.864994  -6.577995   3.140469 -11.612025  -9.032911  21.040758   0.000000   0.000000   0.000000 -26.117595   2.828983  -6.199557  10.031725  -1.661533  -4.044220   9.760260  -2.471473  12.522872   0.000000   0.000000   0.000000   1.505543  -0.898500   1.358654   6.141641  -3.515302   5.508971  12.746326  29.114888 -11.918190   0.088266  -1.000301 -15.523504  15.747188 -32.447919 -52.426061   2.307647 -49.256569  11.566779  12.038109  -1.824092  -4.087690  -1.048856  -1.151810  19.537370  20.200678  16.109022  42.560617  -0.904044  28.868189  -6.001232   4.651829   3.599078  -0.666367
